<svg width="204" height="204" viewBox="0 0 204 204" fill="none" xmlns="http://www.w3.org/2000/svg">
<path d="M51.1534 45.585H65.9119V36.9965H41.3026V72.8723H51.1534V59.5295H63.1867V51.5427H51.1534V45.585ZM168.926 130.668H138.407V139.256H148.765V166.543H158.616V139.256H168.926V130.668ZM124.297 83.8321L137.581 106.778V119.72H143.244V106.884L156.634 83.8439H150.416L140.412 101.835L130.502 83.8439H124.285L124.297 83.8321ZM110.836 154.168L106.589 162.804C107.663 163.441 108.842 164.019 110.105 164.526C111.367 165.033 112.677 165.47 114.045 165.836C115.414 166.213 116.782 166.496 118.162 166.697C119.543 166.897 120.888 167.003 122.209 167.003C123.861 167.003 125.5 166.803 127.14 166.425C128.78 166.036 130.243 165.411 131.541 164.526C132.838 163.653 133.888 162.473 134.679 161.01C135.469 159.548 135.87 157.731 135.87 155.584C135.87 153.897 135.622 152.469 135.115 151.289C134.608 150.11 133.888 149.107 132.944 148.281C132.001 147.455 130.868 146.736 129.535 146.134C128.202 145.532 126.715 144.966 125.064 144.471C124.026 144.128 123.082 143.845 122.256 143.609C121.43 143.373 120.734 143.126 120.156 142.878C119.578 142.63 119.142 142.347 118.847 142.04C118.54 141.734 118.387 141.356 118.387 140.872C118.387 140.235 118.646 139.775 119.165 139.504C119.684 139.232 120.392 139.103 121.265 139.103C122.339 139.103 123.448 139.28 124.58 139.634C125.713 139.988 126.727 140.365 127.636 140.766C128.709 141.238 129.759 141.781 130.774 142.382L135.021 134.242C134.207 133.841 133.298 133.405 132.296 132.956C131.281 132.496 130.196 132.083 129.04 131.694C127.872 131.305 126.668 130.986 125.43 130.738C124.179 130.491 122.905 130.361 121.584 130.361C119.802 130.361 118.103 130.62 116.511 131.139C114.906 131.659 113.491 132.425 112.24 133.44C110.99 134.455 110.01 135.717 109.279 137.227C108.548 138.737 108.194 140.495 108.194 142.477C108.194 143.786 108.371 144.954 108.724 145.969C109.078 146.983 109.621 147.88 110.364 148.67C111.108 149.461 112.051 150.169 113.196 150.794C114.34 151.419 115.709 151.997 117.289 152.54C118.363 152.906 119.389 153.236 120.345 153.495C121.3 153.767 122.15 154.038 122.893 154.31C123.636 154.581 124.214 154.888 124.639 155.241C125.064 155.595 125.276 156.02 125.276 156.527C125.276 156.999 125.064 157.377 124.639 157.66C124.214 157.943 123.471 158.085 122.386 158.085C120.97 158.085 119.578 157.884 118.221 157.483C116.853 157.082 115.638 156.622 114.552 156.115C113.266 155.536 112.04 154.888 110.86 154.144M91.4531 88.8341H103.427V119.708H109.137V88.8341H121.065V83.8321H91.4531V88.8341ZM99.4164 130.668H74.2998V166.543H99.8647V157.955H84.1506V152.292H97.1867V144.305H84.1506V139.256H99.4164V130.668ZM77.6738 119.708H83.3366V83.8321H77.6738V119.708ZM85.059 36.9965H74.2998V72.8723H84.1506V53.9729L90.1672 67.2686H95.4289L101.446 53.9729V72.8723H111.296V36.9965H100.584L92.7981 53.8786L85.0708 36.9965H85.059ZM65.9119 130.668H41.3026V166.543H51.1534V153.201H63.1867V145.214H51.1534V139.256H65.9119V130.668ZM38.6836 95.0749C37.9049 97.2103 37.5156 99.3574 37.5156 101.516C37.5156 103.805 37.9403 106.058 38.7779 108.264C39.6155 110.47 40.7953 112.441 42.3171 114.175C43.839 115.909 45.6322 117.313 47.7203 118.398C49.8085 119.484 52.1207 120.015 54.6454 120.015C56.0611 120.015 57.5003 119.826 58.9632 119.46C60.4261 119.094 61.8182 118.552 63.1277 117.844C64.4372 117.136 65.6169 116.275 66.6669 115.237C67.7169 114.21 68.5191 113.019 69.0972 111.674L64.4018 108.996C63.9299 110.034 63.3282 110.931 62.6086 111.674C61.889 112.417 61.0867 113.031 60.2373 113.514C59.3761 113.998 58.4913 114.352 57.5593 114.576C56.6273 114.8 55.7307 114.906 54.8577 114.906C53.1707 114.906 51.6253 114.541 50.2096 113.821C48.7939 113.101 47.567 112.134 46.5406 110.919C45.5142 109.704 44.712 108.312 44.1457 106.719C43.5677 105.138 43.2845 103.463 43.2845 101.717C43.2845 100.171 43.5323 98.6142 44.016 97.0687C44.4997 95.5232 45.2311 94.1194 46.1867 92.8688C47.1423 91.6183 48.3338 90.6155 49.7495 89.8605C51.1652 89.1055 52.8168 88.728 54.7044 88.728C55.542 88.728 56.4268 88.8223 57.3352 89.0111C58.2436 89.1999 59.1166 89.5066 59.966 89.9431C60.8036 90.3796 61.5822 90.9695 62.2901 91.7127C62.9979 92.4559 63.5996 93.3643 64.1069 94.4379L68.5545 91.4531C67.3747 89.1291 65.6287 87.2415 63.3046 85.7904C60.9806 84.3393 58.1846 83.6197 54.9167 83.6197C52.1915 83.6197 49.7495 84.1388 47.5906 85.1888C45.4316 86.2387 43.6031 87.6072 42.1048 89.306C40.6065 91.0049 39.474 92.9278 38.6953 95.0631M195.364 195.364H8.62387V8.62387H195.364V195.364ZM203.988 199.682V4.31783L199.67 0H4.31783L0 4.31783V199.682L4.31783 204H199.682L204 199.682H203.988Z" fill="white"/>
</svg>
